<svg width="11" height="11" viewBox="0 0 31 20" fill="none" xmlns="http://www.w3.org/2000/svg">
<path d="M8.73699 0.743927C9.60138 0.743927 10.4001 0.809553 11.1333 1.00643C11.8645 1.13768 12.4664 1.41144 13.0008 1.73957C13.5371 2.06957 13.9327 2.53833 14.2027 3.14022C14.4652 3.74023 14.6077 4.47336 14.6077 5.27213C14.6077 6.20214 14.409 7.00091 13.9402 7.60092C13.5371 8.20093 12.8789 8.73719 12.0708 9.13282C13.2071 9.46282 14.0715 10.0628 14.5983 10.8616C15.1252 11.6604 15.4627 12.656 15.4627 13.7923C15.4627 14.7223 15.2658 15.5211 14.9283 16.1886C14.5917 16.8604 14.0864 17.4335 13.4621 17.8517C12.8621 18.2548 12.1289 18.583 11.3302 18.7817C10.5477 18.9884 9.74304 19.0992 8.93386 19.1117L0.0105896 19.1249V0.743927H8.73699ZM8.2026 8.2028C8.93386 8.2028 9.53387 8.00592 9.99701 7.66842C10.4583 7.33091 10.6626 6.73653 10.6626 6.00527C10.6626 5.60026 10.597 5.2065 10.4658 4.94212C10.3237 4.67417 10.1176 4.44551 9.86576 4.27649C9.59375 4.12817 9.30301 4.01717 9.00137 3.94648C8.67136 3.88086 8.33385 3.88085 7.93822 3.88085H4.07941V8.21218C4.07941 8.2028 8.2026 8.2028 8.2026 8.2028ZM8.39948 16.0648C8.80261 16.0648 9.19824 15.9992 9.53575 15.9336C9.86575 15.8679 10.2033 15.7348 10.4658 15.5286C10.7283 15.3223 10.9345 15.1254 11.1333 14.7973C11.2645 14.4673 11.3958 14.0642 11.3958 13.5954C11.3958 12.6654 11.1333 11.9979 10.597 11.5291C10.0626 11.126 9.3295 10.9291 8.46511 10.9291H4.07941V16.0554H8.40136L8.39948 16.0648ZM21.2584 15.9992C21.7947 16.5336 22.5916 16.7979 23.6547 16.7979C24.386 16.7979 25.0535 16.5992 25.5898 16.2617C26.1242 15.8586 26.4523 15.4629 26.5835 15.0617H29.8461C29.3098 16.6573 28.5111 17.7936 27.4498 18.5267C26.3885 19.1924 25.1191 19.588 23.5872 19.588C22.6077 19.5923 21.6361 19.411 20.7241 19.0536C19.9032 18.7485 19.1708 18.2447 18.5922 17.5873C17.975 16.9744 17.5167 16.22 17.2571 15.3898C16.929 14.5254 16.7884 13.5954 16.7884 12.5248C16.7884 11.5291 16.9196 10.5897 17.2571 9.72533C17.5946 8.86281 18.0559 8.1278 18.6578 7.46217C19.2578 6.86216 19.9909 6.3259 20.7897 5.99589C21.6803 5.64128 22.6305 5.45991 23.5891 5.46151C24.7254 5.46151 25.721 5.65838 26.5854 6.12714C27.4479 6.5959 28.1173 7.12466 28.6517 7.92342C29.1861 8.65469 29.5817 9.51907 29.8536 10.451C29.9848 11.381 30.0505 12.3185 29.9848 13.3816H20.3284C20.3284 14.4692 20.7222 15.4629 21.2584 15.9992ZM25.4585 9.00157C24.9898 8.53281 24.2547 8.26843 23.3904 8.26843C22.7903 8.26843 22.3291 8.39968 21.926 8.59843C21.5228 8.79531 21.2584 9.06719 20.9959 9.3297C20.7509 9.58705 20.5877 9.91139 20.5272 10.2616C20.4597 10.5897 20.3959 10.8616 20.3959 11.1241H26.3885C26.2573 10.1378 25.9216 9.47032 25.4585 9.00157ZM19.5953 2.01145H27.0542V3.80585H19.5953V2.01145Z" fill="black"/>
</svg>
