<svg width="25" height="25" viewBox="0 0 25 25" fill="none" xmlns="http://www.w3.org/2000/svg">
<path d="M0.268066 2.11304C0.268066 1.28461 0.939639 0.613037 1.76807 0.613037H4.99738C5.73063 0.613037 6.35642 1.14316 6.47697 1.86644L7.58594 8.52025C7.69419 9.1698 7.36615 9.81399 6.77716 10.1085L4.45496 11.2696C6.1294 15.4305 9.45059 18.7517 13.6115 20.4261L14.7726 18.1039C15.0671 17.515 15.7113 17.1869 16.3609 17.2952L23.0147 18.4041C23.7379 18.5247 24.2681 19.1505 24.2681 19.8837V23.113C24.2681 23.9415 23.5965 24.613 22.7681 24.613H19.7681C8.99851 24.613 0.268066 15.8826 0.268066 5.11304V2.11304Z" fill="#1B2138"/>
</svg>
