<svg width="33" height="22" viewBox="0 0 33 22" fill="none" xmlns="http://www.w3.org/2000/svg">
<path d="M2.43553 21.7075H31.0993C32.0846 21.7075 32.8907 20.9013 32.8907 19.916C32.8907 18.9307 32.0846 18.1245 31.0993 18.1245H2.43553C1.45021 18.1245 0.644043 18.9307 0.644043 19.916C0.644043 20.9013 1.45021 21.7075 2.43553 21.7075ZM2.43553 12.75H31.0993C32.0846 12.75 32.8907 11.9439 32.8907 10.9586C32.8907 9.97324 32.0846 9.16707 31.0993 9.16707H2.43553C1.45021 9.16707 0.644043 9.97324 0.644043 10.9586C0.644043 11.9439 1.45021 12.75 2.43553 12.75ZM0.644043 2.00114C0.644043 2.98646 1.45021 3.79262 2.43553 3.79262H31.0993C32.0846 3.79262 32.8907 2.98646 32.8907 2.00114C32.8907 1.01582 32.0846 0.209656 31.0993 0.209656H2.43553C1.45021 0.209656 0.644043 1.01582 0.644043 2.00114Z" fill="black"/>
</svg>
